# xmcd
# Copyright (C) 1995-1998 Ti Kan
#
# Track frame offsets:
#       150
#       17345
#       34864
#       55802
#       78035
#       101919
#       119181
#       139464
#       155197
#
# Disc length: 2356 seconds
#
# Revision: 2
# Processed by: cddbd v1.5PL3 Copyright (c) Steve Scherf et al.
# Submitted via: CD-Transfer v1.0
#
DISCID=7a093209
DTITLE=Portefank - Do You Think?
DYEAR=2004
DGENRE=
TTITLE0=War
TTITLE1=Got To Dance
TTITLE2=Summer Song
TTITLE3=Spain
TTITLE4=Do You Think?
TTITLE5=Close Your Eyes
TTITLE6=I Did It Right
TTITLE7=Everyone's Fool
TTITLE8=Easier Together
EXTD=
EXTT0=
EXTT1=
EXTT2=
EXTT3=
EXTT4=
EXTT5=
EXTT6=
EXTT7=
EXTT8=
PLAYORDER=
